<?xml version="1.0" standalone="no"?>
<!DOCTYPE svg PUBLIC "-//W3C//DTD SVG 20010904//EN"
 "http://www.w3.org/TR/2001/REC-SVG-20010904/DTD/svg10.dtd">
<svg version="1.0" xmlns="http://www.w3.org/2000/svg"
 width="700.000000pt" height="700.000000pt" viewBox="0 0 700.000000 700.000000"
 preserveAspectRatio="xMidYMid meet">
<metadata>
Created by potrace 1.14, written by Peter Selinger 2001-2017
</metadata>
<g transform="translate(0.000000,700.000000) scale(0.100000,-0.100000)"
fill="#000000" stroke="none">
<path d="M1167 6624 c-1 -1 -42 -4 -92 -8 -102 -7 -203 -22 -240 -36 -14 -5
-25 -8 -25 -5 0 6 -132 -40 -202 -71 -227 -101 -401 -294 -400 -445 1 -55 18
-96 69 -164 32 -42 38 -58 40 -103 2 -76 -9 -100 -83 -184 -118 -133 -188
-277 -218 -450 -14 -82 -15 -318 -1 -398 12 -73 57 -245 66 -254 5 -6 9 -16 9
-22 0 -7 17 -41 37 -76 136 -232 449 -358 880 -353 120 1 109 18 89 -144 -18
-143 -13 -440 9 -561 3 -14 7 -41 10 -60 3 -19 15 -71 26 -115 117 -463 366
-811 770 -1078 81 -54 343 -187 368 -187 25 0 7 -21 -56 -66 -38 -26 -70 -50
-73 -53 -3 -3 -34 -30 -70 -60 -421 -350 -691 -845 -703 -1291 l-2 -64 2122
-1 c1880 0 2123 2 2124 15 2 25 -2 92 -7 145 -42 415 -305 870 -689 1190 -33
28 -62 53 -65 56 -3 4 -40 32 -83 62 l-78 56 37 16 c20 8 38 15 41 15 2 0 39
17 81 39 245 122 360 203 538 376 279 272 464 670 510 1100 15 135 10 379 -12
555 l-6 56 106 -1 c294 -2 528 52 691 160 79 52 105 76 157 145 36 47 86 150
93 190 3 18 9 38 12 43 14 22 43 202 49 303 11 197 -28 399 -107 542 -33 60
-111 163 -149 197 -38 35 -59 90 -56 154 2 50 8 66 39 107 82 108 89 175 33
288 -131 264 -511 439 -954 437 -310 -1 -611 -88 -867 -249 -148 -94 -322
-249 -421 -375 l-30 -39 -54 25 c-167 77 -383 144 -525 163 -27 3 -53 8 -56
10 -3 2 -34 6 -70 9 -35 3 -80 8 -99 11 -40 6 -310 6 -355 0 -16 -2 -64 -7
-105 -11 -41 -4 -77 -9 -80 -10 -3 -2 -26 -6 -50 -10 -25 -3 -53 -8 -62 -11
-9 -3 -25 -6 -35 -8 -103 -21 -259 -72 -388 -127 l-90 -39 -18 22 c-284 351
-647 562 -1067 622 -95 13 -255 26 -263 20z"/>
</g>
</svg>
