<svg version="1.1" xmlns="http://www.w3.org/2000/svg" xmlns:xlink="http://www.w3.org/1999/xlink" x="0px" y="0px" viewBox="0 0 1000 1000" enable-background="new 0 0 1000 1000" xml:space="preserve">
<g><g transform="translate(0.000000,511.000000) scale(0.100000,-0.100000)"><path d="M4411.7,4557.5C3714.3,4410,3154.9,3842.9,3009.3,3138c-30.6-145.6-36.4-231.8-28.7-431c9.6-277.8,40.2-413.8,147.5-662.9l70.9-164.8l-203.1-80.5c-111.1-44.1-306.5-134.1-433-201.2L2333.1,1477l-191.6,93.9c-210.7,101.5-444.5,168.6-586.2,168.6c-76.6,0-105.4-9.6-155.2-55.6c-61.3-53.6-63.2-61.3-59.4-187.7c3.8-176.2,67.1-356.3,206.9-590l34.5-59.4L1448,670.5c-197.3-258.6-350.6-565.2-436.8-869.8l-30.6-111.1H794.7c-220.3,0-295-19.2-417.6-101.5c-120.7-80.5-210.7-208.8-249-356.3c-46-180.1-32.6-825.7,19.2-921.5c59.4-107.3,237.5-281.6,442.5-431c191.6-139.8,1375.5-885.1,1496.2-944.5l65.1-30.7v-561.3c0-597.7,7.7-647.5,93.9-695.4c23-11.5,224.1-19.2,513.4-19.2c394.6,0,482.8,5.7,517.3,28.7c23,17.2,120.7,180.1,216.5,365.9c137.9,262.5,182,333.3,206.9,325.7c19.2-5.7,111.1-23,205-38.3c783.5-132.2,1666.7-74.7,2383.2,153.3c111.1,34.5,203.1,61.3,206.9,59.4c1.9-3.8,42.1-185.8,88.1-406.1c76.6-358.3,90-404.2,136-444.5c51.7-44.1,57.5-44.1,530.7-44.1c293.1,0,494.3,7.7,517.2,19.2c90,49.8,93.9,78.5,93.9,931v798.9l122.6,130.3c321.8,339.1,549.8,773.9,645.6,1226.1c78.6,367.8,46,883.1-76.6,1205l-34.5,92l122.6,122.6c67.1,65.1,160.9,178.2,206.9,247.1l84.3,126.4l113,9.6c208.8,19.2,505.8,176.2,726.1,385.1c124.5,116.9,153.3,193.5,113,291.2c-34.5,78.5-139.8,136-218.4,114.9c-26.8-5.7-95.8-55.6-155.2-107.3c-137.9-122.6-285.4-222.2-387-256.7l-78.6-28.7l11.5,63.2c7.6,32.6,17.2,153.3,24.9,266.3c19.2,327.6-36.4,530.7-187.7,695.4c-132.2,143.7-203.1,172.4-429.1,172.4c-176.3,0-199.2-3.8-295-57.5c-203.1-113-298.8-304.6-298.8-603.5c0-166.7,5.7-191.6,57.5-285.4c113-203.1,272-365.9,551.7-561.3c32.6-23,26.8-32.6-53.6-120.7c-82.4-90-88.1-93.9-111.1-59.4c-11.5,21.1-84.3,120.7-160.9,222.2c-341,459.8-908,877.4-1517.3,1120.7c-122.6,49.8-224.1,92-226,93.9c-1.9,1.9,28.7,80.5,69,176.3c116.9,274,145.6,417.6,143.7,726.1c0,214.6-9.6,300.8-44.1,431c-187.7,705-756.7,1233.7-1465.5,1358.3C4940.4,4603.5,4597.5,4595.8,4411.7,4557.5z M5170.3,4153.3c247.1-63.2,432.9-174.3,639.8-383.1c149.4-147.5,199.2-212.6,264.4-344.8c191.6-385.1,210.7-829.5,51.7-1206.9c-327.6-775.9-1222.2-1103.5-1982.8-724.2c-224.1,111.1-492.3,375.5-607.3,599.6c-195.4,381.2-224.1,775.9-82.4,1162.9c65.1,180.1,229.9,434.9,352.5,547.9c206.9,191.6,521.1,344.8,781.6,385.1C4746.9,4214.6,4992.1,4199.3,5170.3,4153.3z M8589.9,1708.8c76.6-69,99.6-183.9,90-438.7c-5.8-132.2-17.2-249-28.7-260.5c-26.8-26.8-185.8,105.4-295,249c-95.8,126.4-95.8,126.4-90,254.8c5.7,103.4,15.3,137.9,51.7,176.2C8386.8,1764.4,8519,1772,8589.9,1708.8z M3568.7,1425.3c70.9-67.1,157.1-137.9,189.7-157.1c32.6-19.2,59.4-40.2,59.4-46c0-5.7-88.1-34.5-197.3-63.2c-268.2-72.8-511.5-174.3-563.2-233.7c-65.1-74.7-59.4-187.7,11.5-260.5c76.6-74.7,139.9-72.8,373.6,19.2c423.4,164.8,835.3,237.5,1362.1,237.5c523,0,969.4-80.5,1375.5-243.3c92-38.3,199.2-69,235.6-69c149.4,0,235.6,191.6,141.8,312.3c-46,57.5-341,178.2-597.7,245.2c-93.9,24.9-168.6,47.9-168.6,55.6c0,5.7,47.9,42.1,103.5,82.4c55.5,40.2,139.9,111.1,183.9,157.1l80.5,82.4l80.5-24.9C7022.8,1275.9,7747,703,8065,74.7c302.7-597.7,277.8-1314.2-63.2-1885.1c-93.9-155.2-287.4-402.3-400.4-511.5c-151.3-145.6-143.7-101.5-143.7-929.1v-739.5l-224.1,5.7l-226.1,5.7l-90,438.7c-70.9,348.7-97.7,446.4-132.2,482.8c-69,72.8-143.7,74.7-304.6,11.5c-599.6-237.6-1111.1-321.8-1839.1-304.6c-369.7,9.6-498.1,19.2-718.4,61.3c-427.2,78.5-415.7,78.5-478.9,23c-34.5-28.7-126.4-182-229.9-385.1l-172.4-337.2h-243.3h-243.3l-5.8,544.1c-5.7,624.5,3.8,584.3-197.3,685.8C2204.7-2684,1070.6-1977.1,835-1812.3c-99.6,69-214.6,157.1-254.8,197.3l-76.6,72.8v339.1c0,480.8,21.1,509.6,383.1,509.6c314.2,0,413.8,78.6,509.6,398.5c97.7,331.4,273.9,639.9,515.3,900.4c164.8,178.2,168.6,245.2,32.6,429.1c-86.2,114.9-145.6,224.1-130.3,239.5c11.5,13.4,239.5-92,364-170.5c137.9-84.3,189.6-78.5,381.2,38.3c189.7,116.9,496.2,266.3,712.7,346.7c84.3,30.7,157.1,57.5,160.9,57.5C3436.6,1547.9,3497.9,1492.3,3568.7,1425.3z"/><path d="M4725.8,3772.1c-61.3-26.8-122.6-114.9-122.6-176.3c0-32.6-9.6-55.6-24.9-55.6c-40.2,0-172.4-76.6-239.5-139.8c-92-88.1-137.9-197.3-137.9-329.5c0-220.3,126.4-367.8,388.9-452.1c141.8-46,164.8-38.3,166.7,49.8c0,21.1,9.6,51.7,19.2,67.1c13.4,21.1,19.2,1.9,19.2-69V2569l86.2-24.9c149.4-42.1,162.8-111.1,34.5-166.7c-134.1-55.6-331.4,9.6-331.4,109.2c0,57.5-74.7,132.2-145.6,145.6c-78.6,13.4-168.6-19.2-208.8-76.6c-107.3-149.4,74.7-471.3,308.4-547.9c44.1-15.3,65.1-34.5,65.1-59.4c0-55.6,51.7-147.5,93.9-170.5c49.8-24.9,141.8-24.9,201.2,1.9c47.9,23,107.3,120.7,107.3,176.2c0,15.3,34.5,42.1,78.5,59.4c120.7,47.9,258.6,189.7,296.9,302.7c40.2,122.6,26.8,258.6-38.3,367.8c-80.5,137.9-195.4,203.1-471.3,268.2c-210.7,49.8-293.1,90-274,136c30.6,80.5,260.5,116.9,348.7,55.6c23-17.2,59.4-69,80.5-116.9c65.1-151.3,243.3-176.2,342.9-49.8c113,143.7-40.2,436.8-279.7,536.4c-67.1,26.8-82.4,44.1-99.6,114.9C4957.6,3747.2,4829.3,3816.1,4725.8,3772.1z"/><path d="M2018.9,82.3c-306.5-97.7-367.8-523-101.5-706.9c111.1-78.6,285.4-92,400.4-32.6c105.4,51.7,189.7,159,216.5,272C2607-86.2,2315.8,178.1,2018.9,82.3z"/></g></g>
</svg>